<svg xmlns="http://www.w3.org/2000/svg" xmlns:xlink="http://www.w3.org/1999/xlink" width="384" height="384" version="1.1" viewBox="0 0 288 288"><g id="surface1"><path fill="#8AB4F8" fill-opacity="1" fill-rule="nonzero" stroke="none" d="M 166.964844 265.183594 L 121.140625 220.5 L 219.554688 120 L 267 166.5 Z M 166.964844 265.183594"/><path fill="#4285F4" fill-opacity="1" fill-rule="nonzero" stroke="none" d="M 167.160156 67.621094 L 121.5 21 L 21.660156 119.894531 C 8.789062 132.765625 8.789062 153.628906 21.660156 166.515625 L 120 265.5 L 166.5 222 L 91.574219 143.203125 Z M 167.160156 67.621094"/><path fill="#8AB4F8" fill-opacity="1" fill-rule="nonzero" stroke="none" d="M 266.339844 120.660156 L 167.339844 21.660156 C 154.453125 8.773438 133.558594 8.773438 120.675781 21.660156 C 107.789062 34.546875 107.789062 55.441406 120.675781 68.324219 L 219.675781 167.324219 C 232.558594 180.210938 253.453125 180.210938 266.339844 167.324219 C 279.226562 154.441406 279.226562 133.546875 266.339844 120.660156 Z M 266.339844 120.660156"/><path fill="#246FDB" fill-opacity="1" fill-rule="nonzero" stroke="none" d="M 175.5 243.75 C 175.5 261.5625 161.0625 276 143.25 276 C 125.4375 276 111 261.5625 111 243.75 C 111 225.9375 125.4375 211.5 143.25 211.5 C 161.0625 211.5 175.5 225.9375 175.5 243.75 Z M 175.5 243.75"/></g></svg>