<svg xmlns="http://www.w3.org/2000/svg" viewBox="0 0 288 288"><path d="M166.965 265.184L121.14 220.5 219.555 120 267 166.5zm0 0" fill="#8ab4f8"/><path d="M167.16 67.621L121.5 21l-99.84 98.895c-12.87 12.87-12.87 33.734 0 46.62L120 265.5l46.5-43.5-74.926-78.797zm0 0" fill="#4285f4"/><path d="M266.34 120.66l-99-99c-12.887-12.887-33.781-12.887-46.664 0-12.887 12.887-12.887 33.781 0 46.664l99 99c12.883 12.887 33.777 12.887 46.664 0 12.887-12.883 12.887-33.777 0-46.664zm0 0" fill="#8ab4f8"/><path d="M175.5 243.75c0 17.813-14.438 32.25-32.25 32.25-17.813 0-32.25-14.438-32.25-32.25 0-17.813 14.438-32.25 32.25-32.25 17.813 0 32.25 14.438 32.25 32.25zm0 0" fill="#246fdb"/></svg>